<svg version="1.1" xmlns="http://www.w3.org/2000/svg" xmlns:xlink="http://www.w3.org/1999/xlink" width="325.93035" height="307.81944" viewBox="0,0,325.93035,307.81944"><defs><linearGradient x1="348.75041" y1="98.90035" x2="350.48823" y2="104.08576" gradientUnits="userSpaceOnUse" id="color-1"><stop offset="0" stop-color="#5a5b58"/><stop offset="1" stop-color="#2c2b2a"/></linearGradient><linearGradient x1="321.01111" y1="103.30007" x2="321.78847" y2="105.6196" gradientUnits="userSpaceOnUse" id="color-2"><stop offset="0" stop-color="#2a2828"/><stop offset="1" stop-color="#2a2828" stop-opacity="0"/></linearGradient><linearGradient x1="321.49321" y1="104.72171" x2="323.08325" y2="109.46617" gradientUnits="userSpaceOnUse" id="color-3"><stop offset="0" stop-color="#2a2828" stop-opacity="0"/><stop offset="1" stop-color="#2a2828"/></linearGradient><linearGradient x1="335.33371" y1="99.39377" x2="335.91448" y2="101.12674" gradientUnits="userSpaceOnUse" id="color-4"><stop offset="0" stop-color="#2a2828"/><stop offset="1" stop-color="#2a2828" stop-opacity="0"/></linearGradient><linearGradient x1="335.68379" y1="100.4593" x2="336.87176" y2="104.00401" gradientUnits="userSpaceOnUse" id="color-5"><stop offset="0" stop-color="#2a2828" stop-opacity="0"/><stop offset="1" stop-color="#2a2828"/></linearGradient><linearGradient x1="226.33372" y1="144.63774" x2="231.16475" y2="159.0529" gradientUnits="userSpaceOnUse" id="color-6"><stop offset="0" stop-color="#40434c"/><stop offset="1" stop-color="#323232"/></linearGradient><linearGradient x1="220.0763" y1="136.67392" x2="223.28393" y2="146.24505" gradientUnits="userSpaceOnUse" id="color-7"><stop offset="0" stop-color="#333333"/><stop offset="1" stop-color="#40434c"/></linearGradient><radialGradient cx="134.3361" cy="184.64424" r="24.20665" gradientUnits="userSpaceOnUse" id="color-8"><stop offset="0" stop-color="#ba7322"/><stop offset="1" stop-color="#ba7322" stop-opacity="0"/></radialGradient><radialGradient cx="139.11668" cy="198.3206" r="24.00654" gradientUnits="userSpaceOnUse" id="color-9"><stop offset="0" stop-color="#ba7322"/><stop offset="1" stop-color="#ba7322" stop-opacity="0"/></radialGradient><radialGradient cx="124.01237" cy="197.36976" r="14.03574" gradientUnits="userSpaceOnUse" id="color-10"><stop offset="0" stop-color="#ba7322"/><stop offset="1" stop-color="#ba7322" stop-opacity="0"/></radialGradient><radialGradient cx="159.54091" cy="181.02718" r="14.00941" gradientUnits="userSpaceOnUse" id="color-11"><stop offset="0" stop-color="#ba7322"/><stop offset="1" stop-color="#ba7322" stop-opacity="0"/></radialGradient><radialGradient cx="173.62731" cy="173.94062" r="13.17727" gradientUnits="userSpaceOnUse" id="color-12"><stop offset="0" stop-color="#ba7322"/><stop offset="1" stop-color="#ba7322" stop-opacity="0"/></radialGradient><radialGradient cx="121.13302" cy="207.89612" r="6.49215" gradientUnits="userSpaceOnUse" id="color-13"><stop offset="0" stop-color="#ba7322"/><stop offset="1" stop-color="#ba7322" stop-opacity="0"/></radialGradient><radialGradient cx="140.55179" cy="190.24966" r="14.03574" gradientUnits="userSpaceOnUse" id="color-14"><stop offset="0" stop-color="#ba7322"/><stop offset="1" stop-color="#ba7322" stop-opacity="0"/></radialGradient><radialGradient cx="293.64497" cy="115.28564" r="10.37428" gradientUnits="userSpaceOnUse" id="color-15"><stop offset="0" stop-color="#ba7322"/><stop offset="1" stop-color="#ba7322" stop-opacity="0"/></radialGradient><radialGradient cx="307.23366" cy="111.12586" r="10.37428" gradientUnits="userSpaceOnUse" id="color-16"><stop offset="0" stop-color="#ba7322"/><stop offset="1" stop-color="#ba7322" stop-opacity="0"/></radialGradient><radialGradient cx="290.35702" cy="129.00463" r="10.37428" gradientUnits="userSpaceOnUse" id="color-17"><stop offset="0" stop-color="#ba7322"/><stop offset="1" stop-color="#ba7322" stop-opacity="0"/></radialGradient><radialGradient cx="280.98365" cy="132.40885" r="10.37428" gradientUnits="userSpaceOnUse" id="color-18"><stop offset="0" stop-color="#ba7322"/><stop offset="1" stop-color="#ba7322" stop-opacity="0"/></radialGradient><radialGradient cx="277.94223" cy="140.19668" r="5.1404" gradientUnits="userSpaceOnUse" id="color-19"><stop offset="0" stop-color="#ba7322"/><stop offset="1" stop-color="#ba7322" stop-opacity="0"/></radialGradient><radialGradient cx="300.51883" cy="125.79619" r="10.37428" gradientUnits="userSpaceOnUse" id="color-20"><stop offset="0" stop-color="#ba7322"/><stop offset="1" stop-color="#ba7322" stop-opacity="0"/></radialGradient><radialGradient cx="310.6797" cy="121.99664" r="10.37428" gradientUnits="userSpaceOnUse" id="color-21"><stop offset="0" stop-color="#ba7322"/><stop offset="1" stop-color="#ba7322" stop-opacity="0"/></radialGradient><radialGradient cx="318.08145" cy="117.80749" r="3.89425" gradientUnits="userSpaceOnUse" id="color-22"><stop offset="0" stop-color="#ba7322"/><stop offset="1" stop-color="#ba7322" stop-opacity="0"/></radialGradient><linearGradient x1="357.89379" y1="101.92675" x2="358.47456" y2="103.65973" gradientUnits="userSpaceOnUse" id="color-23"><stop offset="0" stop-color="#2a2828"/><stop offset="1" stop-color="#2a2828" stop-opacity="0"/></linearGradient><linearGradient x1="358.32894" y1="102.96375" x2="359.5169" y2="106.50848" gradientUnits="userSpaceOnUse" id="color-24"><stop offset="0" stop-color="#2a2828" stop-opacity="0"/><stop offset="1" stop-color="#2a2828"/></linearGradient><linearGradient x1="323.48557" y1="112.40674" x2="324.30462" y2="114.85067" gradientUnits="userSpaceOnUse" id="color-25"><stop offset="0" stop-color="#2a2828"/><stop offset="1" stop-color="#2a2828" stop-opacity="0"/></linearGradient><linearGradient x1="323.99233" y1="113.90504" x2="325.66766" y2="118.90399" gradientUnits="userSpaceOnUse" id="color-26"><stop offset="0" stop-color="#2a2828" stop-opacity="0"/><stop offset="1" stop-color="#2a2828"/></linearGradient><linearGradient x1="317.40298" y1="103.19501" x2="318.37691" y2="106.10106" gradientUnits="userSpaceOnUse" id="color-27"><stop offset="0" stop-color="#2a2828"/><stop offset="1" stop-color="#2a2828" stop-opacity="0"/></linearGradient><linearGradient x1="318.0034" y1="104.97734" x2="319.99552" y2="110.92156" gradientUnits="userSpaceOnUse" id="color-28"><stop offset="0" stop-color="#2a2828" stop-opacity="0"/><stop offset="1" stop-color="#2a2828"/></linearGradient><linearGradient x1="320.41377" y1="112.80536" x2="321.67957" y2="116.58234" gradientUnits="userSpaceOnUse" id="color-29"><stop offset="0" stop-color="#2a2828"/><stop offset="1" stop-color="#2a2828" stop-opacity="0"/></linearGradient><linearGradient x1="321.19293" y1="115.12224" x2="323.78208" y2="122.84789" gradientUnits="userSpaceOnUse" id="color-30"><stop offset="0" stop-color="#2a2828" stop-opacity="0"/><stop offset="1" stop-color="#2a2828"/></linearGradient><linearGradient x1="392.85335" y1="89.5121" x2="393.60391" y2="91.75163" gradientUnits="userSpaceOnUse" id="color-31"><stop offset="0" stop-color="#2a2828"/><stop offset="1" stop-color="#2a2828" stop-opacity="0"/></linearGradient><linearGradient x1="393.32103" y1="90.88397" x2="394.85623" y2="95.46484" gradientUnits="userSpaceOnUse" id="color-32"><stop offset="0" stop-color="#2a2828" stop-opacity="0"/><stop offset="1" stop-color="#2a2828"/></linearGradient><linearGradient x1="352.34643" y1="103.56056" x2="353.08805" y2="105.77343" gradientUnits="userSpaceOnUse" id="color-33"><stop offset="0" stop-color="#2a2828"/><stop offset="1" stop-color="#2a2828" stop-opacity="0"/></linearGradient><linearGradient x1="352.81323" y1="104.91453" x2="354.33017" y2="109.44086" gradientUnits="userSpaceOnUse" id="color-34"><stop offset="0" stop-color="#2a2828" stop-opacity="0"/><stop offset="1" stop-color="#2a2828"/></linearGradient><linearGradient x1="156.16757" y1="26.21635" x2="156.16757" y2="139.76849" gradientUnits="userSpaceOnUse" id="color-35"><stop offset="0" stop-color="#808080"/><stop offset="1" stop-color="#404040"/></linearGradient></defs><g transform="translate(-77.40556,-25.96419)"><g data-paper-data="{&quot;isPaintingLayer&quot;:true}" fill-rule="nonzero" stroke-linejoin="miter" stroke-miterlimit="10" stroke-dasharray="" stroke-dashoffset="0" style="mix-blend-mode: normal"><path d="M78.59295,290.57268l40.26946,-187.23404l75.23414,16.18102l-40.26946,187.23404c0,0 -4.41772,35.46536 -46.71096,25.14782c-38.60745,-9.41839 -28.52319,-41.32884 -28.52319,-41.32884z" data-paper-data="{&quot;origRot&quot;:0}" fill="#62a941" stroke="none" stroke-width="0" stroke-linecap="butt"/><g data-paper-data="{&quot;origRot&quot;:0}"><path d="M347.1967,99.42105l9.89481,2.4517l-9.75415,3.12478l-5.10333,-3.62492z" fill="url(#color-1)" stroke="#000000" stroke-width="0.5" stroke-linecap="round"/><path d="M324.40958,108.27754l-1.60375,-4.78536l24.57667,-8.23652l1.60375,4.78536z" fill="#898b86" stroke="#000000" stroke-width="0.5" stroke-linecap="butt"/><path d="M320.90724,110.28243l-2.13833,-6.38048l4.35999,-1.46119l2.13833,6.38048z" fill="#72736f" stroke="#000000" stroke-width="0.5" stroke-linecap="butt"/><g stroke="#000000" stroke-width="0" stroke-linecap="butt"><path d="M323.09079,102.6031l0.77736,2.31952l-4.15936,1.39395l-0.77736,-2.31952z" data-paper-data="{&quot;index&quot;:null}" fill="url(#color-2)"/><path d="M323.57544,104.02388l1.59004,4.74447l-4.16446,1.39566l-1.59004,-4.74447z" data-paper-data="{&quot;index&quot;:null}" fill="url(#color-3)"/></g><path d="M347.31393,95.37878l0.58079,1.73298l-23.96045,8.03l-0.58079,-1.73298z" data-paper-data="{&quot;index&quot;:null}" fill="url(#color-4)" stroke="#000000" stroke-width="0" stroke-linecap="butt"/><path d="M347.64316,96.45129l1.18795,3.54471l-23.91871,8.01602l-1.18795,-3.54471z" data-paper-data="{&quot;index&quot;:null}" fill="url(#color-5)" stroke="#000000" stroke-width="0" stroke-linecap="butt"/><path d="M207.85022,154.68264l-2.21753,-6.61679l29.30295,-9.82047l2.21753,6.61679z" fill="#24262b" stroke="#000000" stroke-width="0.5" stroke-linecap="butt"/><path d="M257.64589,124.24369l-0.51479,-1.53604l10.39781,-3.48468l0.51479,1.53604z" fill="#515159" stroke="#000000" stroke-width="0.5" stroke-linecap="butt"/><path d="M268.13287,129.25489l19.38994,-6.30836c0,0 1.46062,0.29397 2.46402,0.15081c1.0301,-0.14697 3.63861,-1.02147 3.63861,-1.02147c0,0 2.82675,-0.89234 3.81609,-1.45396c0.78114,-0.44344 1.64431,-1.64582 1.64431,-1.64582l4.46076,-1.5372c0,0 2.3738,-0.00646 3.49666,0.01804c0.97854,0.02134 2.62342,-0.60699 2.62342,-0.60699c0,0 2.51888,-0.85741 3.50088,-1.55065c0.99418,-0.70181 2.67199,-1.90703 2.67199,-1.90703l3.3828,-1.1581l3.53685,11.15l-13.19901,4.9294c0,0 -4.25492,1.77606 -9.94331,3.8585c-3.38845,1.24045 -7.46155,2.25689 -10.96207,3.98809c-4.35446,2.15352 -6.53748,6.85041 -10.59945,8.05797c-2.54015,0.75515 -5.56037,-2.25397 -5.56037,-2.25397z" fill="#8b460b" stroke="#000000" stroke-width="0.5" stroke-linecap="round"/><path d="M395.36158,89.47519l7.23286,2.75802l-5.55579,1.86194z" fill="#5a5b58" stroke="#000000" stroke-width="0.5" stroke-linecap="round"/><path d="M325.89108,117.87471l-1.60375,-4.78536l66.40425,-22.25443l1.60375,4.78536z" fill="#898b86" stroke="#000000" stroke-width="0.5" stroke-linecap="butt"/><path d="M235.52427,162.55121l-2.49471,-7.44389l3.54471,-1.18795l2.49471,7.44389z" fill="#4d4e52" stroke="#000000" stroke-width="0.5" stroke-linecap="butt"/><path d="M231.69505,166.41968l-3.28669,-9.80704l4.96259,-1.66315l3.28669,9.80704z" fill="#4d4e52" stroke="#000000" stroke-width="0.5" stroke-linecap="butt"/><path d="M108.16677,185.08921l38.67758,-12.43653c0,0 5.4773,-1.34872 7.95803,-1.35274c2.21883,-0.0036 6.22848,1.32975 6.22848,1.32975c0,0 8.59946,-5.17632 12.3666,-7.31822c3.73935,-2.12611 10.15349,-5.48618 10.15349,-5.48618l4.59345,13.70622l-63.14054,42.18912l-5.67154,1.90074c0,0 -5.81312,-16.02418 -7.91768,-21.87256c-1.2316,-3.42249 -3.24787,-10.65959 -3.24787,-10.65959z" fill="#9a4d09" stroke="#000000" stroke-width="0.5" stroke-linecap="round"/><path d="M117.79031,218.5105c0,0 -3.85998,-10.46265 -5.77977,-15.66632c-1.90628,-5.16706 -5.69873,-15.44666 -5.69873,-15.44666l2.20347,-2.05274l10.92922,32.61134z" fill="#3b3b45" stroke="#000000" stroke-width="0.5" stroke-linecap="butt"/><path d="M211.68873,164.56761l2.7719,8.27099l-2.32226,1.69826l-0.27972,21.91078l2.21241,3.46424c0,0 -0.06858,1.42616 -1.49325,2.60328c-1.42466,1.17713 -3.85894,1.81899 -3.85894,1.81899l-9.14344,-0.61569l-2.05401,-2.99161l0.59525,-21.75367c0,0 -1.30174,-2.76404 -2.13765,-3.54433c-0.82145,-0.7668 -2.83517,-1.09765 -2.83517,-1.09765l-0.87117,-2.59945z" fill="#993c2d" stroke="#000000" stroke-width="0.5" stroke-linecap="round"/><path d="M193.15848,174.37491l-0.87117,-2.59945l19.25863,-7.04568l1.2266,3.07177c0,0 -11.72469,4.71794 -15.24097,5.89636c-1.81753,0.60913 -4.3731,0.67701 -4.3731,0.67701z" fill="#a9540a" stroke="#000000" stroke-width="0" stroke-linecap="butt"/><path d="M208.93254,173.20655l-0.62653,26.75842l-7.60548,0.05174l0.04022,-23.80194z" fill="#a9540a" stroke="#000000" stroke-width="0" stroke-linecap="round"/><path d="M188.24421,173.43712l-4.94919,-14.37556l1.73089,0.06252l84.54449,-28.31935l3.38729,11.08759z" fill="url(#color-6)" stroke="#000000" stroke-width="0.5" stroke-linecap="butt"/><path d="M260.82016,133.66532l-2.30581,-7.26914c0,0 -21.26666,7.21728 -24.30017,8.00765c-1.8892,0.49222 -1.45673,5.888 -1.45673,5.888l-20.01728,6.65028l-1.46832,3.1993l-27.03928,8.99353l4.47304,-11.9476l68.82678,-22.86917l2.1891,1.23777l2.55411,7.62113z" fill="url(#color-7)" stroke="#000000" stroke-width="0.5" stroke-linecap="round"/><path d="M262.26951,133.26863l-2.56071,-7.64083l-2.07744,-1.23139l23.6314,-7.91973l2.7191,8.11344l-14.99295,4.93706l0.44879,1.33912z" fill="#40434c" stroke="#000000" stroke-width="0.5" stroke-linecap="butt"/><path d="M284.04461,124.64428l-3.25987,-9.72701l2.12683,-0.71277l3.25987,9.72701z" fill="#7b7d7a" stroke="#000000" stroke-width="0.5" stroke-linecap="butt"/><path d="M282.90347,114.18032l33.14304,-11.10741l2.86747,8.55614l-3.72195,1.24735l-1.68761,-0.0355l-8.68454,2.9105l-1.32347,1.34516l-3.81057,1.27706l-1.68954,-0.3354l-9.21624,3.08869l-0.73333,1.04721l-2.21544,0.74248z" fill="#8b460b" stroke="#000000" stroke-width="0.5" stroke-linecap="round"/><path d="M318.78504,111.42078l-2.67291,-7.9756l2.44585,-0.81969l2.67291,7.9756z" fill="#5a5b58" stroke="#000000" stroke-width="0.5" stroke-linecap="butt"/><path d="M322.75481,123.26604l-3.43519,-10.25013l2.17999,-0.7306l3.43519,10.25013z" fill="#5a5b58" stroke="#000000" stroke-width="0.5" stroke-linecap="butt"/><path d="M323.84218,119.45164l-2.17792,-6.49863l3.59788,-1.20578l2.17792,6.49863z" fill="#72736f" stroke="#000000" stroke-width="0.5" stroke-linecap="butt"/><path d="M391.82618,96.4053l-2.00256,-5.97537l5.87408,-1.96862l2.00256,5.97537z" fill="#5a5b58" stroke="#000000" stroke-width="0.5" stroke-linecap="butt"/><path d="M324.72626,121.65406l-0.35639,-1.06341l59.52048,-20.63744l2.18814,0.64667z" fill="#5a5b58" stroke="#000000" stroke-width="0.5" stroke-linecap="butt"/><path d="M229.08089,158.22722l2.89006,8.23138l-1.68805,3.98285l-11.46123,3.84107l-4.13997,-1.37254" fill="none" stroke="#000000" stroke-width="0.5" stroke-linecap="round"/><path d="M219.98344,161.67038l-2.0438,3.31352c0,0 0.42042,2.46014 1.2205,3.34219c0.9201,1.01438 3.99055,2.4028 3.99055,2.4028c0,0 -3.71452,0.09598 -4.89128,-0.85481c-1.02508,-0.82822 -1.77725,-4.53315 -1.77725,-4.53315l-3.74526,-0.97911z" fill="#353537" stroke="#000000" stroke-width="0.5" stroke-linecap="round"/><path d="M235.6415,169.9599l-1.07109,-4.37245" fill="none" stroke="#000000" stroke-width="0.5" stroke-linecap="round"/><path d="M257.87033,147.65886c0,0 7.65986,13.69437 14.35259,19.11492c6.12485,4.96061 24.25135,12.15111 24.25135,12.15111l-5.61383,21.28893c0,0 -11.40947,-4.2002 -21.77212,-9.77966c-5.04202,-2.71473 -9.74698,-6.38775 -12.94081,-8.848c-5.49883,-4.2358 -11.59134,-12.46009 -16.21366,-18.35748c-3.07829,-3.92743 -3.46186,-7.65372 -3.46186,-7.65372z" fill="#606163" stroke="#000000" stroke-width="0.5" stroke-linecap="round"/><path d="M296.47428,178.9249l0.98614,0.58951l-5.59999,21.72238l-1.14453,-1.06214z" fill="#2d2e2f" stroke="#000000" stroke-width="0.5" stroke-linecap="round"/><path d="M250.65466,153.18756l3.3084,-1.10876c0,0 7.40259,12.81042 13.62418,17.6265c4.26911,3.30469 12.11328,7.86009 18.43447,10.71096c4.18041,1.88538 9.33019,3.00287 9.33019,3.00287l-1.25502,3.70629c0,0 -20.24622,-8.69899 -27.14204,-13.84371c-7.11683,-5.30962 -15.42964,-17.88877 -15.42964,-17.88877z" fill="#40434c" stroke="#000000" stroke-width="0.5" stroke-linecap="round"/><path d="M292.1159,188.66552l-1.45237,3.50959l-2.76552,-4.33029z" fill="#2d2e2f" stroke="#000000" stroke-width="0.5" stroke-linecap="round"/><path d="M232.57417,136.90851c0.18912,-0.85764 1.23423,-2.22271 1.23423,-2.22271l24.45851,-8.19692l2.41551,7.20758l-27.29428,9.14729l-0.83157,-2.4813c0,0 -0.20507,-2.44428 0.01758,-3.45395z" fill="#353537" stroke="#000000" stroke-width="0.5" stroke-linecap="round"/><path d="M234.28869,139.25623l-0.59398,-1.77235l24.34034,-8.15732l0.59398,1.77235z" fill="#57575b" stroke="#000000" stroke-width="0.5" stroke-linecap="butt"/><path d="M204.2832,153.25498l7.20758,-2.41551l1.61045,-3.23399l21.79997,-7.30595l1.20776,3.60378l-27.20358,16.47685c0,0 -1.43374,0.71679 -3.03177,0.78519c-0.91131,0.03901 -1.57438,-0.01703 -2.5924,-0.96274c-1.041,-0.96705 -1.21104,-2.32605 -1.21767,-3.84477c-0.00564,-1.29113 2.21968,-3.10286 2.21968,-3.10286z" fill="#353537" stroke="#000000" stroke-width="0.5" stroke-linecap="round"/><path d="M203.16741,157.7689c-0.51394,-1.53353 0.31259,-3.19332 1.84613,-3.70726c1.53353,-0.51394 3.19332,0.31259 3.70726,1.84613c0.51394,1.53353 -0.31259,3.19332 -1.84613,3.70726c-1.53353,0.51394 -3.19332,-0.31259 -3.70726,-1.84613z" fill="#5b5e65" stroke="#000000" stroke-width="0.5" stroke-linecap="butt"/><path d="M204.13248,157.51122c-0.32805,-0.97884 0.19953,-2.03829 1.17837,-2.36634c0.97884,-0.32805 2.03829,0.19953 2.36634,1.17837c0.32805,0.97884 -0.19953,2.03829 -1.17837,2.36634c-0.97884,0.32805 -2.03829,-0.19953 -2.36634,-1.17837z" fill="#333336" stroke="#000000" stroke-width="0.5" stroke-linecap="butt"/><path d="M204.82247,153.6876l23.48494,-9.14111l0.51479,1.53604l-20.98149,13.86591" fill="none" stroke="#000000" stroke-width="0.5" stroke-linecap="round"/><path d="M213.36747,161.92953c-0.18589,-0.55468 0.11306,-1.15504 0.66774,-1.34092c0.55468,-0.18589 1.15504,0.11306 1.34092,0.66774c0.18589,0.55468 -0.11306,1.15504 -0.66774,1.34092c-0.55468,0.18589 -1.15504,-0.11306 -1.34092,-0.66774z" fill="#737479" stroke="#000000" stroke-width="0.5" stroke-linecap="butt"/><path d="M226.16419,155.40662c-0.20776,-0.61994 0.12637,-1.29092 0.74631,-1.49867c0.61994,-0.20776 1.29092,0.12637 1.49867,0.74631c0.20776,0.61994 -0.12637,1.29092 -0.74631,1.49867c-0.61994,0.20776 -1.29092,-0.12637 -1.49867,-0.74631z" fill="#737479" stroke="#000000" stroke-width="0.5" stroke-linecap="butt"/><path d="M230.27605,151.59718c-0.19682,-0.58731 0.11971,-1.22297 0.70702,-1.41981c0.58731,-0.19682 1.22297,0.11971 1.41981,0.70702c0.19682,0.58731 -0.11971,1.22297 -0.70702,1.41981c-0.58731,0.19682 -1.22297,-0.11971 -1.41981,-0.70702z" fill="#737479" stroke="#000000" stroke-width="0.5" stroke-linecap="butt"/><path d="M187.51343,160.07991c-0.20776,-0.61994 0.12637,-1.29092 0.74631,-1.49867c0.61994,-0.20776 1.29092,0.12637 1.49867,0.74631c0.20776,0.61994 -0.12637,1.29092 -0.74631,1.49867c-0.61994,0.20776 -1.29092,-0.12637 -1.49867,-0.74631z" fill="#737479" stroke="#000000" stroke-width="0.5" stroke-linecap="butt"/><path d="M238.62113,145.90902c-0.19682,-0.58731 0.11971,-1.22297 0.70702,-1.41981c0.58731,-0.19682 1.22297,0.11971 1.41981,0.70702c0.19682,0.58731 -0.11971,1.22297 -0.70702,1.41981c-0.58731,0.19682 -1.22297,-0.11971 -1.41981,-0.70702z" fill="#737479" stroke="#000000" stroke-width="0.5" stroke-linecap="butt"/><path d="M242.59887,144.4445c-0.17495,-0.52205 0.10641,-1.08709 0.62847,-1.26204c0.52205,-0.17495 1.08709,0.10641 1.26204,0.62847c0.17495,0.52205 -0.10641,1.08709 -0.62847,1.26204c-0.52205,0.17495 -1.08709,-0.10641 -1.26204,-0.62847z" fill="#737479" stroke="#000000" stroke-width="0.5" stroke-linecap="butt"/><path d="M250.16731,145.85088c-0.19682,-0.58731 0.11971,-1.22297 0.70702,-1.41981c0.58731,-0.19682 1.22297,0.11971 1.41981,0.70702c0.19682,0.58731 -0.11971,1.22297 -0.70702,1.41981c-0.58731,0.19682 -1.22297,-0.11971 -1.41981,-0.70702z" fill="#737479" stroke="#000000" stroke-width="0.5" stroke-linecap="butt"/><path d="M259.3746,137.24522c-0.21869,-0.65256 0.13302,-1.35886 0.78559,-1.57755c0.65256,-0.21869 1.35886,0.13302 1.57755,0.78559c0.21869,0.65256 -0.13302,1.35886 -0.78559,1.57755c-0.65256,0.21869 -1.35886,-0.13302 -1.57755,-0.78559z" fill="#737479" stroke="#000000" stroke-width="0.5" stroke-linecap="butt"/><path d="M264.88839,135.26594c-0.19682,-0.58731 0.11971,-1.22297 0.70702,-1.41981c0.58731,-0.19682 1.22297,0.11971 1.41981,0.70702c0.19682,0.58731 -0.11971,1.22297 -0.70702,1.41981c-0.58731,0.19682 -1.22297,-0.11971 -1.41981,-0.70702z" fill="#737479" stroke="#000000" stroke-width="0.5" stroke-linecap="butt"/><path d="M240.12012,146.85236l4.13549,-1.38595c0,0 1.12208,-0.08564 1.89243,0.54863c0.77034,0.63427 1.00007,1.5188 0.94909,2.04763c-0.05098,0.52883 -0.83774,1.81408 -0.83774,1.81408l-4.37181,1.46515c0,0 -1.85448,1.07887 -2.79329,-1.28471c-0.85188,-2.14471 1.02583,-3.20484 1.02583,-3.20484z" fill="#34343e" stroke="#000000" stroke-width="0.5" stroke-linecap="round"/><path d="M241.24277,147.27672l2.85469,-0.95671c0,0 0.77456,-0.05912 1.30633,0.37872c0.53176,0.43784 0.69033,1.04842 0.65515,1.41346c-0.03519,0.36504 -0.57828,1.25225 -0.57828,1.25225l-3.01781,1.01138c0,0 -1.38385,0.43522 -2.0319,-1.19632c-0.58803,-1.48047 0.81184,-1.90276 0.81184,-1.90276z" fill="#26262d" stroke="#000000" stroke-width="0.5" stroke-linecap="round"/><path d="M283.88698,133.91498c0,0 -3.86784,-0.56056 -4.10038,-1.2544c-0.28479,-0.84976 2.51643,-3.4719 2.51643,-3.4719l28.35768,-9.50367c0,0 3.67112,0.75789 3.90364,1.45172c0.28479,0.84976 -2.3197,3.27457 -2.3197,3.27457z" fill="#a26e34" stroke="#000000" stroke-width="0" stroke-linecap="butt"/><path d="M263.48796,130.30289c-0.17495,-0.52205 0.10641,-1.08709 0.62847,-1.26204c0.52205,-0.17495 1.08709,0.10641 1.26204,0.62847c0.17495,0.52205 -0.10641,1.08709 -0.62847,1.26204c-0.52205,0.17495 -1.08709,-0.10641 -1.26204,-0.62847z" fill="#737479" stroke="#000000" stroke-width="0.5" stroke-linecap="butt"/><path d="M254.56933,122.51477l-1.02956,-3.07208l1.77235,-0.59398l1.02956,3.07208z" fill="#b4b29b" stroke="#000000" stroke-width="0.5" stroke-linecap="butt"/><path d="M256.30209,121.80263l-0.59398,-1.77235l12.99727,-4.35586l0.59398,1.77235z" fill="#b4b29b" stroke="#000000" stroke-width="0.5" stroke-linecap="butt"/><path d="M278.82985,113.72708l1.02956,3.07208l-14.76962,4.94983l3.49744,-6.03496z" fill="#515159" stroke="#000000" stroke-width="0.5" stroke-linecap="round"/><path d="M275.2877,116.49131c-0.24056,-0.71782 0.14632,-1.49474 0.86414,-1.7353c0.71782,-0.24056 1.49474,0.14632 1.7353,0.86414c0.24056,0.71782 -0.14632,1.49474 -0.86414,1.7353c-0.71782,0.24056 -1.49474,-0.14632 -1.7353,-0.86414z" fill="#343841" stroke="#000000" stroke-width="0.5" stroke-linecap="butt"/><path d="M257.04872,120.50098c-0.30617,-0.91359 0.18623,-1.90241 1.09982,-2.20858c0.91359,-0.30617 1.90241,0.18623 2.20858,1.09982c0.30617,0.91359 -0.18623,1.90241 -1.09982,2.20858c-0.91359,0.30617 -1.90241,-0.18623 -2.20858,-1.09982z" fill="#b4b29b" stroke="#000000" stroke-width="0.5" stroke-linecap="butt"/><path d="M128.2213,192.69672l-15.28909,1.89272" fill="none" stroke="#aa6a20" stroke-width="0.5" stroke-linecap="round"/><path d="M112.05922,191.59681l28.75098,-5.8057c0,0 4.013,-0.0077 5.25611,0.42421c1.21037,0.42053 -1.25767,5.0359 -1.25767,5.0359l-26.66468,19.02523" fill="none" stroke="#aa6a20" stroke-width="0.5" stroke-linecap="round"/><path d="M144.71574,190.18002l-27.22527,13.11745" fill="none" stroke="#aa6a20" stroke-width="0.5" stroke-linecap="round"/><path d="M136.47326,195.81292c0,0 -10.84004,7.54798 -14.54959,9.52399c-2.58528,1.37713 -5.57939,1.19841 -5.57939,1.19841" fill="none" stroke="#aa6a20" stroke-width="0.5" stroke-linecap="round"/><path d="M113.30721,196.98775l11.76852,-2.48714" fill="none" stroke="#aa6a20" stroke-width="0.5" stroke-linecap="round"/><path d="M115.4666,200.7418l21.5275,-9.58034" fill="none" stroke="#aa6a20" stroke-width="0.5" stroke-linecap="round"/><path d="M148.87662,185.34124c0,0 0.84133,3.17235 0.37862,4.63505c-0.50011,1.58087 -2.98071,4.22716 -2.98071,4.22716l-27.92922,17.72769" fill="none" stroke="#aa6a20" stroke-width="0.5" stroke-linecap="round"/><path d="M122.06858,186.46281c0,0 17.71928,-3.26238 23.92716,-4.1732c2.81351,-0.4128 5.90702,-1.62596 7.27704,0.90641c1.37002,2.53237 -2.2801,8.32995 -2.2801,8.32995" fill="none" stroke="#aa6a20" stroke-width="0.5" stroke-linecap="round"/><path d="M173.3831,181.0675l-17.50783,6.23531" fill="none" stroke="#aa6a20" stroke-width="0.5" stroke-linecap="round"/><path d="M169.86435,174.00652l-15.13246,7.835" fill="none" stroke="#aa6a20" stroke-width="0.5" stroke-linecap="round"/><path d="M155.92636,185.13394l14.94539,-5.50999" fill="none" stroke="#aa6a20" stroke-width="0.5" stroke-linecap="round"/><path d="M177.60788,178.26196c0,0 -3.59093,0.41089 -5.05836,-1.47942c-1.46744,-1.89031 -0.80868,-6.07832 -0.80868,-6.07832" fill="none" stroke="#aa6a20" stroke-width="0.5" stroke-linecap="round"/><path d="M182.42481,174.30843c0,0 -3.0651,1.57087 -4.27792,-1.11592c-1.21282,-2.68679 0.87128,-6.43094 0.87128,-6.43094" fill="none" stroke="#aa6a20" stroke-width="0.5" stroke-linecap="round"/><path d="M178.81965,177.68878c0,0 -3.31329,-1.38631 -3.99321,-3.53733c-0.67993,-2.15102 1.08006,-5.67872 1.08006,-5.67872" fill="none" stroke="#aa6a20" stroke-width="0.5" stroke-linecap="round"/><path d="M121.45014,212.28742l34.06628,-21.86642l19.21805,-8.68972" fill="none" stroke="#aa6a20" stroke-width="0.5" stroke-linecap="round"/><path d="M122.69205,213.375l33.22697,-21.85563" fill="none" stroke="#aa6a20" stroke-width="0.5" stroke-linecap="round"/><path d="M123.56808,214.41812l1.37627,-1.12959l30.15601,-19.07864" fill="none" stroke="#aa6a20" stroke-width="0.5" stroke-linecap="round"/><path d="M113.69073,187.03993l34.12726,-11.27018" fill="none" stroke="#aa6a20" stroke-width="0.5" stroke-linecap="round"/><path d="M134.4315,182.42818l21.04635,-7.88882" fill="none" stroke="#aa6a20" stroke-width="0.5" stroke-linecap="round"/><path d="M115.87539,202.48522l21.87141,-10.48774" fill="none" stroke="#aa6a20" stroke-width="0.5" stroke-linecap="round"/><path d="M133.93905,190.11217l6.52538,-2.52107l3.07125,1.30994" fill="none" stroke="#aa6a20" stroke-width="0.5" stroke-linecap="round"/><path d="M167.90478,172.748l-20.795,7.36343" fill="none" stroke="#aa6a20" stroke-width="0.5" stroke-linecap="round"/><path d="M168.03124,177.8313l-10.10147,3.97678" fill="none" stroke="#aa6a20" stroke-width="0.5" stroke-linecap="round"/><path d="M112.18384,185.31068l34.62129,-10.81427" fill="none" stroke="#aa6a20" stroke-width="0.5" stroke-linecap="round"/><path d="M181.83931,163.14949l-11.57491,6.63915" fill="none" stroke="#aa6a20" stroke-width="0.5" stroke-linecap="round"/><path d="M185.10908,174.67075l-8.0896,5.27396" fill="none" stroke="#aa6a20" stroke-width="0.5" stroke-linecap="round"/><path d="M184.04183,172.66272c0,0 -2.48055,-0.71117 -3.08907,-1.90243c-0.5258,-1.02933 -0.35026,-4.83061 -0.35026,-4.83061" fill="none" stroke="#aa6a20" stroke-width="0.5" stroke-linecap="round"/><path d="M157.28809,176.9522c1.09895,3.27913 -8.28613,9.38124 -20.96216,13.62943c-12.67604,4.24819 -23.84288,5.03378 -24.94183,1.75464c-1.09895,-3.27913 8.28613,-9.38124 20.96216,-13.62943c12.67604,-4.24819 23.84288,-5.03378 24.94183,-1.75464z" fill="url(#color-8)" stroke="none" stroke-width="0" stroke-linecap="butt"/><path d="M160.27593,186.98041c1.72388,2.58355 -6.35196,9.7551 -18.0379,16.01812c-11.68594,6.26302 -22.55673,9.2458 -24.28062,6.66226c-1.72388,-2.58355 6.35196,-9.7551 18.0379,-16.01812c11.68594,-6.26302 22.55673,-9.2458 24.28062,-6.66226z" data-paper-data="{&quot;origRot&quot;:0}" fill="url(#color-9)" stroke="none" stroke-width="0" stroke-linecap="butt"/><path d="M127.53482,210.95631c-5.72893,0.52356 -11.95019,-5.13492 -13.89558,-12.63856c-1.94539,-7.50364 1.12176,-14.01098 6.85069,-14.53454c5.72893,-0.52356 11.95019,5.13492 13.89559,12.63856c1.9454,7.50364 -1.12176,14.01098 -6.85069,14.53454z" data-paper-data="{&quot;origRot&quot;:0}" fill="url(#color-10)" stroke="none" stroke-width="0" stroke-linecap="butt"/><path d="M173.05981,177.35255c-0.1301,4.03382 -6.2882,8.94909 -13.75447,10.97852c-7.46628,2.02944 -13.41343,0.40456 -13.28333,-3.62927c0.1301,-4.03382 6.2882,-8.94907 13.75447,-10.97852c7.46628,-2.02944 13.41343,-0.40456 13.28333,3.62927z" data-paper-data="{&quot;origRot&quot;:0}" fill="url(#color-11)" stroke="none" stroke-width="0" stroke-linecap="butt"/><path d="M185.59676,168.42953c0.55754,3.98822 -4.3494,9.68872 -10.95994,12.73242c-6.61056,3.0437 -12.42144,2.27801 -12.97898,-1.71022c-0.55754,-3.98822 4.3494,-9.68872 10.95994,-12.73242c6.61055,-3.04369 12.42144,-2.27801 12.97898,1.71021z" data-paper-data="{&quot;origRot&quot;:0}" fill="url(#color-12)" stroke="none" stroke-width="0" stroke-linecap="butt"/><path d="M119.6618,201.57286c3.54692,1.70461 7.08096,5.91749 7.8935,9.40973c0.81252,3.49224 -1.40413,4.94139 -4.95106,3.23677c-3.54692,-1.70461 -7.08096,-5.91748 -7.8935,-9.40972c-0.81252,-3.49224 1.40413,-4.94139 4.95106,-3.23678z" data-paper-data="{&quot;origRot&quot;:0}" fill="url(#color-13)" stroke="none" stroke-width="0" stroke-linecap="butt"/><path d="M153.32697,184.43615c1.50403,5.55271 -2.99635,12.65687 -10.05186,15.8676c-7.05553,3.21072 -13.99443,1.31215 -15.49846,-4.24056c-1.50403,-5.55271 2.99635,-12.65687 10.05186,-15.86758c7.05553,-3.21072 13.99444,-1.31215 15.49846,4.24056z" data-paper-data="{&quot;origRot&quot;:0}" fill="url(#color-14)" stroke="none" stroke-width="0" stroke-linecap="butt"/><path d="M315.37496,117.47693l3.96912,5.37263l-28.29733,10.27201l-15.06214,6.82213" fill="none" stroke="#a55f18" stroke-width="0.5" stroke-linecap="round"/><path d="M320.16223,117.05538l-23.87028,6.42265" fill="none" stroke="#a55f18" stroke-width="0.5" stroke-linecap="round"/><path d="M274.96334,129.83745l10.45786,-2.91337" fill="none" stroke="#a55f18" stroke-width="0.5" stroke-linecap="round"/><path d="M273.96698,135.0999l10.28062,-2.85397" fill="none" stroke="#a55f18" stroke-width="0.5" stroke-linecap="round"/><path d="M274.25919,133.03057l35.15587,-9.21914" fill="none" stroke="#a55f18" stroke-width="0.5" stroke-linecap="round"/><path d="M283.13054,135.97171l25.69532,-10.97712" fill="none" stroke="#a55f18" stroke-width="0.5" stroke-linecap="round"/><path d="M317.14828,117.47404l-16.12843,5.40521" fill="none" stroke="#a55f18" stroke-width="0.5" stroke-linecap="round"/><path d="M308.64383,122.09846l9.03902,-3.02929" fill="none" stroke="#a55f18" stroke-width="0.5" stroke-linecap="round"/><path d="M312.46063,106.42796l-25.04673,9.97119" fill="none" stroke="#a55f18" stroke-width="0.5" stroke-linecap="round"/><path d="M312.05251,109.91614l-23.80705,8.96431" fill="none" stroke="#a55f18" stroke-width="0.5" stroke-linecap="round"/><path d="M309.09602,109.32983l-19.02072,7.95166" fill="none" stroke="#a55f18" stroke-width="0.5" stroke-linecap="round"/><path d="M310.74574,106.01696l-26.87752,10.97904" fill="none" stroke="#a55f18" stroke-width="0.5" stroke-linecap="round"/><path d="M286.41563,120.47941l27.82502,-9.91659" fill="none" stroke="#a55f18" stroke-width="0.5" stroke-linecap="round"/><path d="M303.48154,111.98905c0.60689,1.81086 -3.30512,4.75479 -8.73771,6.57544c-5.43259,1.82066 -10.32855,1.8286 -10.93543,0.01774c-0.60689,-1.81086 3.30512,-4.75479 8.73771,-6.57544c5.43259,-1.82066 10.32855,-1.8286 10.93543,-0.01774z" fill="url(#color-15)" stroke="none" stroke-width="0" stroke-linecap="butt"/><path d="M317.07023,107.82928c0.60689,1.81086 -3.30512,4.75479 -8.73771,6.57544c-5.43259,1.82066 -10.32855,1.8286 -10.93543,0.01774c-0.60689,-1.81086 3.30512,-4.75479 8.73771,-6.57544c5.43259,-1.82066 10.32855,-1.8286 10.93543,-0.01774z" fill="url(#color-16)" stroke="none" stroke-width="0" stroke-linecap="butt"/><path d="M300.19359,125.70804c0.90212,2.69182 -2.77054,6.34991 -8.20313,8.17057c-5.43259,1.82066 -10.56789,1.11443 -11.47001,-1.57739c-0.90212,-2.69182 2.77054,-6.34991 8.20313,-8.17057c5.43259,-1.82066 10.56789,-1.11443 11.47001,1.57739z" fill="url(#color-17)" stroke="none" stroke-width="0" stroke-linecap="butt"/><path d="M290.82023,129.11226c1.09895,3.27913 -2.41415,7.41332 -7.84674,9.23398c-5.43259,1.82066 -10.72745,0.63833 -11.82641,-2.6408c-1.09895,-3.27913 2.41415,-7.41332 7.84674,-9.23398c5.43259,-1.82066 10.72745,-0.63833 11.82641,2.6408z" fill="url(#color-18)" stroke="none" stroke-width="0" stroke-linecap="butt"/><path d="M282.81621,138.56324c0.60689,1.81086 -1.08328,4.01017 -3.77512,4.91231c-2.69182,0.90212 -5.36595,0.16545 -5.97284,-1.64541c-0.60689,-1.81086 1.08328,-4.01017 3.77512,-4.91231c2.69182,-0.90212 5.36595,-0.16545 5.97284,1.64541z" fill="url(#color-19)" stroke="none" stroke-width="0" stroke-linecap="butt"/><path d="M310.35541,122.4996c0.90212,2.69182 -2.77054,6.34991 -8.20313,8.17057c-5.43259,1.82066 -10.56789,1.11443 -11.47001,-1.57739c-0.90212,-2.69182 2.77054,-6.34991 8.20313,-8.17057c5.43259,-1.82066 10.56789,-1.11443 11.47001,1.57739z" fill="url(#color-20)" stroke="none" stroke-width="0" stroke-linecap="butt"/><path d="M320.51627,118.70005c0.90212,2.69182 -2.77054,6.34991 -8.20313,8.17057c-5.43259,1.82066 -10.56789,1.11443 -11.47001,-1.57739c-0.90212,-2.69182 2.77054,-6.34991 8.20313,-8.17057c5.43259,-1.82066 10.56789,-1.11443 11.47001,1.57739z" fill="url(#color-21)" stroke="none" stroke-width="0" stroke-linecap="butt"/><path d="M321.77386,116.57004c0.90212,2.69182 -0.01971,5.428 -2.05896,6.11144c-2.03926,0.68343 -4.42373,-0.9447 -5.32585,-3.63652c-0.90212,-2.69182 0.01971,-5.428 2.05896,-6.11144c2.03926,-0.68343 4.42373,0.9447 5.32585,3.63652z" fill="url(#color-22)" stroke="none" stroke-width="0" stroke-linecap="butt"/><path d="M390.07188,91.14272l0.58079,1.73298l-64.35619,21.56806l-0.58079,-1.73298z" data-paper-data="{&quot;index&quot;:null}" fill="url(#color-23)" stroke="#000000" stroke-width="0" stroke-linecap="butt"/><path d="M390.54642,92.16653l1.18797,3.54472l-64.43496,21.59446l-1.18797,-3.54472z" data-paper-data="{&quot;index&quot;:null}" fill="url(#color-24)" stroke="#000000" stroke-width="0" stroke-linecap="butt"/><path d="M380.40591,94.26205l-1.7157,-16.54818l3.54471,-1.18795l0.94763,1.1469l4.65002,13.87501c0,0 2.44447,4.86207 1.67474,7.56537c-0.30324,1.06499 -3.62765,1.47443 -3.9827,1.60419c-1.2181,0.44518 -5.1187,-6.45533 -5.1187,-6.45533zM384.09898,90.82765c1.37039,-0.45927 2.10899,-1.94248 1.64972,-3.31287c-0.45927,-1.37039 -1.94248,-2.10899 -3.31287,-1.64972c-1.37039,0.45927 -2.10899,1.94248 -1.64972,3.31287c0.45927,1.37039 1.94248,2.10899 3.31287,1.64972z" fill="#5a5b58" stroke="#000000" stroke-width="0.5" stroke-linecap="round"/><path d="M349.43135,111.25169l-2.0365,-6.07665l9.72264,-3.2584l2.0365,6.07665z" fill="#5a5b58" stroke="#000000" stroke-width="0.5" stroke-linecap="butt"/><g stroke="#000000" stroke-width="0" stroke-linecap="butt"><path d="M325.18784,111.83625l0.81905,2.44393l-3.40454,1.14098l-0.81905,-2.44393z" data-paper-data="{&quot;index&quot;:null}" fill="url(#color-25)"/><path d="M325.69669,113.33385l1.67533,4.99896l-3.40872,1.14238l-1.67533,-4.99896z" data-paper-data="{&quot;index&quot;:null}" fill="url(#color-26)"/></g><g stroke="#000000" stroke-width="0" stroke-linecap="butt"><path d="M318.53915,102.81425l0.97393,2.90607l-2.27231,0.76153l-0.97393,-2.90607z" data-paper-data="{&quot;index&quot;:null}" fill="url(#color-27)"/><path d="M319.14095,104.5961l1.99212,5.94422l-2.27511,0.76246l-1.99212,-5.94421z" data-paper-data="{&quot;index&quot;:null}" fill="url(#color-28)"/></g><g stroke="#000000" stroke-width="0" stroke-linecap="butt"><path d="M321.40839,112.47202l1.2658,3.77698l-1.98925,0.66667l-1.2658,-3.77698z" data-paper-data="{&quot;index&quot;:null}" fill="url(#color-29)"/><path d="M322.18879,114.78849l2.58915,7.72566l-1.99169,0.66749l-2.58915,-7.72566z" data-paper-data="{&quot;index&quot;:null}" fill="url(#color-30)"/></g><g stroke="#000000" stroke-width="0" stroke-linecap="butt"><path d="M395.75862,88.53845l0.75054,2.23952l-5.81054,1.94732l-0.75054,-2.23952z" data-paper-data="{&quot;index&quot;:null}" fill="url(#color-31)"/><path d="M396.22985,89.90912l1.53521,4.58087l-5.81764,1.9497l-1.53521,-4.58087z" data-paper-data="{&quot;index&quot;:null}" fill="url(#color-32)"/></g><g stroke="#000000" stroke-width="0" stroke-linecap="butt"><path d="M357.13873,101.95448l0.74161,2.21287l-9.58462,3.21215l-0.74161,-2.21287z" data-paper-data="{&quot;index&quot;:null}" fill="url(#color-33)"/><path d="M357.61143,103.30648l1.51693,4.52632l-9.59636,3.21609l-1.51693,-4.52632z" data-paper-data="{&quot;index&quot;:null}" fill="url(#color-34)"/></g><text transform="translate(188.96395,171.5337) rotate(-18.52595) scale(0.06869,0.06869)" font-size="40" xml:space="preserve" fill="#000000" fill-rule="nonzero" stroke="none" stroke-width="1" stroke-linecap="butt" stroke-linejoin="miter" stroke-miterlimit="10" stroke-dasharray="" stroke-dashoffset="0" font-family="Sans Serif" font-weight="normal" text-anchor="start" style="mix-blend-mode: normal"><tspan x="0" dy="0">BY 374222</tspan></text></g><path d="M214.91515,95.07474c-6.20604,28.85517 -34.98662,47.13896 -64.2832,40.83798c-29.29659,-6.30098 -48.01517,-34.80068 -41.80913,-63.65585c6.20604,-28.85517 34.98662,-47.13896 64.2832,-40.83798c29.29659,6.30098 48.01517,34.80068 41.80913,63.65585z" data-paper-data="{&quot;origRot&quot;:0}" fill="#ffdcbb" stroke="none" stroke-width="NaN" stroke-linecap="butt"/><path d="M124.74352,33.19906l25.5848,-6.9827l31.7547,2.05047l23.79293,14.51961l11.23146,23.29417l-53.96836,3.48767l-8.97208,14.81516l-0.86454,30.09585l37.11181,18.89763l-11.49006,6.39158l-37.31501,-15.92353l1.27831,-38.42706l-19.63656,5.24999l-21.89762,18.07746l-6.12557,-25.40376l5.26104,-26.31261z" fill="url(#color-35)" stroke="#000000" stroke-width="0.5" stroke-linecap="round"/><path d="" fill="none" stroke="#000000" stroke-width="0.5" stroke-linecap="round"/></g></g></svg>